<mxfile host="app.diagrams.net" modified="2024-07-02T03:52:36.843Z" agent="Mozilla/5.0 (Windows NT 10.0; Win64; x64; rv:127.0) Gecko/20100101 Firefox/127.0" etag="34XCCx1l13azHiPT2smi" version="24.6.4" type="github">
  <diagram name="Страница — 1" id="gjajxChaPbByj-a_MBBo">
    <mxGraphModel dx="794" dy="394" grid="1" gridSize="10" guides="1" tooltips="1" connect="1" arrows="1" fold="1" page="1" pageScale="1" pageWidth="827" pageHeight="1169" math="0" shadow="0">
      <root>
        <mxCell id="0" />
        <mxCell id="1" parent="0" />
        <mxCell id="Evka37wHVcQ0AsjKDG4v-1" value="" style="rounded=1;whiteSpace=wrap;html=1;" vertex="1" parent="1">
          <mxGeometry x="40" y="80" width="140" height="270" as="geometry" />
        </mxCell>
      </root>
    </mxGraphModel>
  </diagram>
</mxfile>
